<mxfile host="65bd71144e">
    <diagram id="GixmWMwX_nylo4apT2Ep" name="Page-1">
        <mxGraphModel dx="2736" dy="1507" grid="0" gridSize="10" guides="1" tooltips="1" connect="1" arrows="1" fold="1" page="0" pageScale="1" pageWidth="850" pageHeight="1100" background="#ffffff" math="0" shadow="0">
            <root>
                <mxCell id="0"/>
                <mxCell id="1" parent="0"/>
                <mxCell id="2" value="User" style="shape=table;startSize=30;container=1;collapsible=0;childLayout=tableLayout;strokeWidth=1;strokeColor=#001DBC;fillColor=#0050ef;fontColor=#ffffff;" vertex="1" parent="1">
                    <mxGeometry x="-1024" y="-136" width="163.15983951453006" height="257.13928985595703" as="geometry"/>
                </mxCell>
                <mxCell id="3" value="" style="shape=partialRectangle;collapsible=0;dropTarget=0;pointerEvents=0;fillColor=none;top=0;left=0;bottom=0;right=0;points=[[0,0.5],[1,0.5]];portConstraint=eastwest;" vertex="1" parent="2">
                    <mxGeometry y="30" width="163.15983951453006" height="35" as="geometry"/>
                </mxCell>
                <mxCell id="4" value="id" style="shape=partialRectangle;html=1;whiteSpace=wrap;connectable=0;overflow=hidden;fillColor=none;top=0;left=0;bottom=0;right=0;pointerEvents=1;fontColor=#000000;fontSize=10;" vertex="1" parent="3">
                    <mxGeometry width="85" height="35" as="geometry">
                        <mxRectangle width="85" height="35" as="alternateBounds"/>
                    </mxGeometry>
                </mxCell>
                <mxCell id="5" value="varchar" style="shape=partialRectangle;html=1;whiteSpace=wrap;connectable=0;overflow=hidden;fillColor=none;top=0;left=0;bottom=0;right=0;pointerEvents=1;fontColor=#000000;fontSize=10;" vertex="1" parent="3">
                    <mxGeometry x="85" width="78" height="35" as="geometry">
                        <mxRectangle width="78" height="35" as="alternateBounds"/>
                    </mxGeometry>
                </mxCell>
                <mxCell id="6" value="" style="shape=partialRectangle;collapsible=0;dropTarget=0;pointerEvents=0;fillColor=none;top=0;left=0;bottom=0;right=0;points=[[0,0.5],[1,0.5]];portConstraint=eastwest;" vertex="1" parent="2">
                    <mxGeometry y="65" width="163.15983951453006" height="32" as="geometry"/>
                </mxCell>
                <mxCell id="7" value="username" style="shape=partialRectangle;html=1;whiteSpace=wrap;connectable=0;overflow=hidden;fillColor=none;top=0;left=0;bottom=0;right=0;pointerEvents=1;fontSize=10;fontColor=#000000;" vertex="1" parent="6">
                    <mxGeometry width="85" height="32" as="geometry">
                        <mxRectangle width="85" height="32" as="alternateBounds"/>
                    </mxGeometry>
                </mxCell>
                <mxCell id="8" value="string" style="shape=partialRectangle;html=1;whiteSpace=wrap;connectable=0;overflow=hidden;fillColor=none;top=0;left=0;bottom=0;right=0;pointerEvents=1;fontSize=10;fontColor=#000000;" vertex="1" parent="6">
                    <mxGeometry x="85" width="78" height="32" as="geometry">
                        <mxRectangle width="78" height="32" as="alternateBounds"/>
                    </mxGeometry>
                </mxCell>
                <mxCell id="9" style="shape=partialRectangle;collapsible=0;dropTarget=0;pointerEvents=0;fillColor=none;top=0;left=0;bottom=0;right=0;points=[[0,0.5],[1,0.5]];portConstraint=eastwest;" vertex="1" parent="2">
                    <mxGeometry y="97" width="163.15983951453006" height="32" as="geometry"/>
                </mxCell>
                <mxCell id="10" value="password_digest" style="shape=partialRectangle;html=1;whiteSpace=wrap;connectable=0;overflow=hidden;fillColor=none;top=0;left=0;bottom=0;right=0;pointerEvents=1;fontSize=10;fontColor=#000000;" vertex="1" parent="9">
                    <mxGeometry width="85" height="32" as="geometry">
                        <mxRectangle width="85" height="32" as="alternateBounds"/>
                    </mxGeometry>
                </mxCell>
                <mxCell id="11" value="string" style="shape=partialRectangle;html=1;whiteSpace=wrap;connectable=0;overflow=hidden;fillColor=none;top=0;left=0;bottom=0;right=0;pointerEvents=1;fontSize=10;fontColor=#000000;" vertex="1" parent="9">
                    <mxGeometry x="85" width="78" height="32" as="geometry">
                        <mxRectangle width="78" height="32" as="alternateBounds"/>
                    </mxGeometry>
                </mxCell>
                <mxCell id="12" style="shape=partialRectangle;collapsible=0;dropTarget=0;pointerEvents=0;fillColor=none;top=0;left=0;bottom=0;right=0;points=[[0,0.5],[1,0.5]];portConstraint=eastwest;" vertex="1" parent="2">
                    <mxGeometry y="129" width="163.15983951453006" height="32" as="geometry"/>
                </mxCell>
                <mxCell id="13" value="first_name" style="shape=partialRectangle;html=1;whiteSpace=wrap;connectable=0;overflow=hidden;fillColor=none;top=0;left=0;bottom=0;right=0;pointerEvents=1;fontSize=10;fontColor=#000000;" vertex="1" parent="12">
                    <mxGeometry width="85" height="32" as="geometry">
                        <mxRectangle width="85" height="32" as="alternateBounds"/>
                    </mxGeometry>
                </mxCell>
                <mxCell id="14" value="string" style="shape=partialRectangle;html=1;whiteSpace=wrap;connectable=0;overflow=hidden;fillColor=none;top=0;left=0;bottom=0;right=0;pointerEvents=1;fontSize=10;fontColor=#000000;" vertex="1" parent="12">
                    <mxGeometry x="85" width="78" height="32" as="geometry">
                        <mxRectangle width="78" height="32" as="alternateBounds"/>
                    </mxGeometry>
                </mxCell>
                <mxCell id="15" style="shape=partialRectangle;collapsible=0;dropTarget=0;pointerEvents=0;fillColor=none;top=0;left=0;bottom=0;right=0;points=[[0,0.5],[1,0.5]];portConstraint=eastwest;" vertex="1" parent="2">
                    <mxGeometry y="161" width="163.15983951453006" height="32" as="geometry"/>
                </mxCell>
                <mxCell id="16" value="last_name" style="shape=partialRectangle;html=1;whiteSpace=wrap;connectable=0;overflow=hidden;fillColor=none;top=0;left=0;bottom=0;right=0;pointerEvents=1;fontSize=10;fontColor=#000000;" vertex="1" parent="15">
                    <mxGeometry width="85" height="32" as="geometry">
                        <mxRectangle width="85" height="32" as="alternateBounds"/>
                    </mxGeometry>
                </mxCell>
                <mxCell id="17" value="string" style="shape=partialRectangle;html=1;whiteSpace=wrap;connectable=0;overflow=hidden;fillColor=none;top=0;left=0;bottom=0;right=0;pointerEvents=1;fontSize=10;fontColor=#000000;" vertex="1" parent="15">
                    <mxGeometry x="85" width="78" height="32" as="geometry">
                        <mxRectangle width="78" height="32" as="alternateBounds"/>
                    </mxGeometry>
                </mxCell>
                <mxCell id="18" style="shape=partialRectangle;collapsible=0;dropTarget=0;pointerEvents=0;fillColor=none;top=0;left=0;bottom=0;right=0;points=[[0,0.5],[1,0.5]];portConstraint=eastwest;" vertex="1" parent="2">
                    <mxGeometry y="193" width="163.15983951453006" height="32" as="geometry"/>
                </mxCell>
                <mxCell id="19" value="email" style="shape=partialRectangle;html=1;whiteSpace=wrap;connectable=0;overflow=hidden;fillColor=none;top=0;left=0;bottom=0;right=0;pointerEvents=1;fontSize=10;fontColor=#000000;" vertex="1" parent="18">
                    <mxGeometry width="85" height="32" as="geometry">
                        <mxRectangle width="85" height="32" as="alternateBounds"/>
                    </mxGeometry>
                </mxCell>
                <mxCell id="20" value="string" style="shape=partialRectangle;html=1;whiteSpace=wrap;connectable=0;overflow=hidden;fillColor=none;top=0;left=0;bottom=0;right=0;pointerEvents=1;fontSize=10;fontColor=#000000;" vertex="1" parent="18">
                    <mxGeometry x="85" width="78" height="32" as="geometry">
                        <mxRectangle width="78" height="32" as="alternateBounds"/>
                    </mxGeometry>
                </mxCell>
                <mxCell id="21" style="shape=partialRectangle;collapsible=0;dropTarget=0;pointerEvents=0;fillColor=none;top=0;left=0;bottom=0;right=0;points=[[0,0.5],[1,0.5]];portConstraint=eastwest;" vertex="1" parent="2">
                    <mxGeometry y="225" width="163.15983951453006" height="32" as="geometry"/>
                </mxCell>
                <mxCell id="22" value="avatar" style="shape=partialRectangle;html=1;whiteSpace=wrap;connectable=0;overflow=hidden;fillColor=none;top=0;left=0;bottom=0;right=0;pointerEvents=1;fontSize=10;fontColor=#000000;" vertex="1" parent="21">
                    <mxGeometry width="85" height="32" as="geometry">
                        <mxRectangle width="85" height="32" as="alternateBounds"/>
                    </mxGeometry>
                </mxCell>
                <mxCell id="23" value="string" style="shape=partialRectangle;html=1;whiteSpace=wrap;connectable=0;overflow=hidden;fillColor=none;top=0;left=0;bottom=0;right=0;pointerEvents=1;fontSize=10;fontColor=#000000;" vertex="1" parent="21">
                    <mxGeometry x="85" width="78" height="32" as="geometry">
                        <mxRectangle width="78" height="32" as="alternateBounds"/>
                    </mxGeometry>
                </mxCell>
                <mxCell id="30" value="Friendship" style="shape=table;startSize=30;container=1;collapsible=0;childLayout=tableLayout;strokeWidth=1;strokeColor=#A50040;fillColor=#d80073;fontColor=#ffffff;" vertex="1" parent="1">
                    <mxGeometry x="-1354" y="-406" width="203.130106608073" height="191.51" as="geometry"/>
                </mxCell>
                <mxCell id="31" value="" style="shape=partialRectangle;collapsible=0;dropTarget=0;pointerEvents=0;fillColor=none;top=0;left=0;bottom=0;right=0;points=[[0,0.5],[1,0.5]];portConstraint=eastwest;" vertex="1" parent="30">
                    <mxGeometry y="30" width="203.130106608073" height="35" as="geometry"/>
                </mxCell>
                <mxCell id="32" value="id" style="shape=partialRectangle;html=1;whiteSpace=wrap;connectable=0;overflow=hidden;fillColor=none;top=0;left=0;bottom=0;right=0;pointerEvents=1;fontColor=#000000;fontSize=10;" vertex="1" parent="31">
                    <mxGeometry width="150" height="35" as="geometry">
                        <mxRectangle width="150" height="35" as="alternateBounds"/>
                    </mxGeometry>
                </mxCell>
                <mxCell id="33" value="varchar" style="shape=partialRectangle;html=1;whiteSpace=wrap;connectable=0;overflow=hidden;fillColor=none;top=0;left=0;bottom=0;right=0;pointerEvents=1;fontColor=#000000;fontSize=10;" vertex="1" parent="31">
                    <mxGeometry x="150" width="53" height="35" as="geometry">
                        <mxRectangle width="53" height="35" as="alternateBounds"/>
                    </mxGeometry>
                </mxCell>
                <mxCell id="34" value="" style="shape=partialRectangle;collapsible=0;dropTarget=0;pointerEvents=0;fillColor=none;top=0;left=0;bottom=0;right=0;points=[[0,0.5],[1,0.5]];portConstraint=eastwest;" vertex="1" parent="30">
                    <mxGeometry y="65" width="203.130106608073" height="32" as="geometry"/>
                </mxCell>
                <mxCell id="35" value="user_id" style="shape=partialRectangle;html=1;whiteSpace=wrap;connectable=0;overflow=hidden;fillColor=none;top=0;left=0;bottom=0;right=0;pointerEvents=1;fontSize=10;fontColor=#000000;" vertex="1" parent="34">
                    <mxGeometry width="150" height="32" as="geometry">
                        <mxRectangle width="150" height="32" as="alternateBounds"/>
                    </mxGeometry>
                </mxCell>
                <mxCell id="36" value="integer" style="shape=partialRectangle;html=1;whiteSpace=wrap;connectable=0;overflow=hidden;fillColor=none;top=0;left=0;bottom=0;right=0;pointerEvents=1;fontSize=10;fontColor=#000000;" vertex="1" parent="34">
                    <mxGeometry x="150" width="53" height="32" as="geometry">
                        <mxRectangle width="53" height="32" as="alternateBounds"/>
                    </mxGeometry>
                </mxCell>
                <mxCell id="37" style="shape=partialRectangle;collapsible=0;dropTarget=0;pointerEvents=0;fillColor=none;top=0;left=0;bottom=0;right=0;points=[[0,0.5],[1,0.5]];portConstraint=eastwest;" vertex="1" parent="30">
                    <mxGeometry y="97" width="203.130106608073" height="32" as="geometry"/>
                </mxCell>
                <mxCell id="38" value="friend_id" style="shape=partialRectangle;html=1;whiteSpace=wrap;connectable=0;overflow=hidden;fillColor=none;top=0;left=0;bottom=0;right=0;pointerEvents=1;fontSize=10;fontColor=#000000;" vertex="1" parent="37">
                    <mxGeometry width="150" height="32" as="geometry">
                        <mxRectangle width="150" height="32" as="alternateBounds"/>
                    </mxGeometry>
                </mxCell>
                <mxCell id="39" value="integer" style="shape=partialRectangle;html=1;whiteSpace=wrap;connectable=0;overflow=hidden;fillColor=none;top=0;left=0;bottom=0;right=0;pointerEvents=1;fontSize=10;fontColor=#000000;" vertex="1" parent="37">
                    <mxGeometry x="150" width="53" height="32" as="geometry">
                        <mxRectangle width="53" height="32" as="alternateBounds"/>
                    </mxGeometry>
                </mxCell>
                <mxCell id="40" style="shape=partialRectangle;collapsible=0;dropTarget=0;pointerEvents=0;fillColor=none;top=0;left=0;bottom=0;right=0;points=[[0,0.5],[1,0.5]];portConstraint=eastwest;" vertex="1" parent="30">
                    <mxGeometry y="129" width="203.130106608073" height="63" as="geometry"/>
                </mxCell>
                <mxCell id="41" value="corresponding_friendship_id" style="shape=partialRectangle;html=1;whiteSpace=wrap;connectable=0;overflow=hidden;fillColor=none;top=0;left=0;bottom=0;right=0;pointerEvents=1;fontSize=10;fontColor=#000000;" vertex="1" parent="40">
                    <mxGeometry width="150" height="63" as="geometry">
                        <mxRectangle width="150" height="63" as="alternateBounds"/>
                    </mxGeometry>
                </mxCell>
                <mxCell id="42" value="integer" style="shape=partialRectangle;html=1;whiteSpace=wrap;connectable=0;overflow=hidden;fillColor=none;top=0;left=0;bottom=0;right=0;pointerEvents=1;fontSize=10;fontColor=#000000;" vertex="1" parent="40">
                    <mxGeometry x="150" width="53" height="63" as="geometry">
                        <mxRectangle width="53" height="63" as="alternateBounds"/>
                    </mxGeometry>
                </mxCell>
                <mxCell id="52" style="edgeStyle=orthogonalEdgeStyle;html=1;exitX=0;exitY=0.5;exitDx=0;exitDy=0;entryX=1;entryY=0.5;entryDx=0;entryDy=0;strokeColor=#000000;startArrow=block;startFill=1;endArrow=ERmany;endFill=0;" edge="1" parent="1" source="3" target="34">
                    <mxGeometry relative="1" as="geometry"/>
                </mxCell>
                <mxCell id="53" style="edgeStyle=orthogonalEdgeStyle;html=1;exitX=0.007;exitY=-0.155;exitDx=0;exitDy=0;entryX=1;entryY=0.5;entryDx=0;entryDy=0;startArrow=block;startFill=1;endArrow=ERmany;endFill=0;strokeColor=#000000;exitPerimeter=0;" edge="1" parent="1" source="6" target="37">
                    <mxGeometry relative="1" as="geometry"/>
                </mxCell>
                <mxCell id="55" value="- A User has many Friendships&lt;br&gt;- A User has many Friends through Friendship&lt;br&gt;- A Friendship belongs to one User and one Friend&lt;br&gt;- Friend will serve as alias for User&lt;br&gt;- friend_id will correspond to a user_id&lt;br&gt;- Will create TWO FRIENDSHIPS for every relationship, that way both users can access their &quot;friends&quot;&lt;br&gt;- corresponding_friendship will keep track of the reverse relationship, making it easer to delete friendships, etc." style="text;html=1;strokeColor=none;fillColor=none;align=left;verticalAlign=top;whiteSpace=wrap;rounded=0;fontColor=#FF0000;" vertex="1" parent="1">
                    <mxGeometry x="-1055" y="-378" width="284" height="186.75" as="geometry"/>
                </mxCell>
            </root>
        </mxGraphModel>
    </diagram>
</mxfile>